<svg width="11" height="10" viewBox="0 0 11 10" fill="none" xmlns="http://www.w3.org/2000/svg">
<path d="M4.67693 0.669796L5.22196 0.161438C5.45274 -0.0538127 5.82591 -0.0538127 6.05424 0.161438L10.8269 4.61072C11.0577 4.82597 11.0577 5.17403 10.8269 5.38699L6.05424 9.83856C5.82346 10.0538 5.45028 10.0538 5.22196 9.83856L4.67693 9.3302C4.4437 9.11266 4.44861 8.75773 4.68675 8.54477L7.64513 5.91596H0.58922C0.262694 5.91596 0 5.67094 0 5.36638V4.63362C0 4.32906 0.262694 4.08404 0.58922 4.08404H7.64513L4.68675 1.45523C4.44616 1.24227 4.44125 0.887337 4.67693 0.669796Z" fill="#000"/>
</svg>
