<svg width="30" height="25" viewBox="0 0 30 25" fill="none" xmlns="http://www.w3.org/2000/svg">
<path d="M26.9625 15.2672C26.9719 15.1781 27 15.0938 27 15.0047C27 13.35 25.6547 12.0047 24 12.0047C23.4094 12.0047 22.8656 12.1828 22.4016 12.4734C21.5766 10.6547 19.7531 9.37969 17.625 9.37969C14.7281 9.37969 12.375 11.7281 12.375 14.6297C12.375 14.7703 12.4078 14.9016 12.4172 15.0375C10.0922 15.2109 8.25 17.1328 8.25 19.5047C8.25 21.9891 10.2656 24.0047 12.75 24.0047H25.5C27.9844 24.0047 30 21.9891 30 19.5047C30 17.5312 28.725 15.8766 26.9625 15.2672ZM6.7875 14.2078C4.73906 12.1594 4.73906 8.83125 6.7875 6.7875C8.83594 4.73906 12.1641 4.73906 14.2125 6.7875C14.6672 7.24219 15.0047 7.76719 15.2578 8.32031C15.7172 8.14688 16.2 8.03906 16.6969 7.96875L18.0938 3.80156C18.2812 3.24375 17.7516 2.71875 17.1937 2.90156L13.0781 4.275L11.1328 0.39375C10.875 -0.13125 10.125 -0.13125 9.8625 0.39375L7.92188 4.275L3.80156 2.90156C3.24844 2.71875 2.71875 3.24844 2.90156 3.80156L4.275 7.91719L0.39375 9.8625C-0.13125 10.125 -0.13125 10.8703 0.39375 11.1328L4.275 13.0734L2.90156 17.1891C2.71406 17.7469 3.24375 18.2719 3.80156 18.0891L7.36875 16.9031C7.65469 16.3219 8.025 15.7922 8.475 15.3328C7.86094 15.0797 7.28438 14.7047 6.7875 14.2078ZM6.5625 10.4953C6.5625 12.4078 7.93594 14.0016 9.74531 14.3531C10.1203 14.1328 10.5094 13.9406 10.9266 13.8047C11.1797 11.7281 12.3797 9.9375 14.0859 8.88281C13.4672 7.51875 12.0938 6.5625 10.5 6.5625C8.32969 6.5625 6.5625 8.325 6.5625 10.4953Z" fill="#000"/>
</svg>
