<svg width="28" height="22" viewBox="0 0 28 22" fill="none" xmlns="http://www.w3.org/2000/svg">
<path d="M13.1423 5.94969L4.49997 13.0677V20.75C4.49997 20.9489 4.57899 21.1397 4.71964 21.2803C4.86029 21.421 5.05106 21.5 5.24997 21.5L10.5028 21.4864C10.701 21.4854 10.8908 21.406 11.0307 21.2654C11.1705 21.1249 11.249 20.9347 11.249 20.7364V16.25C11.249 16.0511 11.328 15.8603 11.4687 15.7197C11.6094 15.579 11.8001 15.5 11.999 15.5H14.999C15.1979 15.5 15.3887 15.579 15.5294 15.7197C15.67 15.8603 15.749 16.0511 15.749 16.25V20.7331C15.7487 20.8318 15.7679 20.9296 15.8054 21.0209C15.843 21.1121 15.8982 21.1951 15.9679 21.265C16.0375 21.3349 16.1203 21.3903 16.2115 21.4282C16.3026 21.466 16.4003 21.4855 16.499 21.4855L21.75 21.5C21.9489 21.5 22.1396 21.421 22.2803 21.2803C22.4209 21.1397 22.5 20.9489 22.5 20.75V13.0625L13.8595 5.94969C13.7579 5.86781 13.6314 5.82316 13.5009 5.82316C13.3704 5.82316 13.2439 5.86781 13.1423 5.94969ZM26.7937 10.7877L22.875 7.5575V1.06485C22.875 0.915665 22.8157 0.772592 22.7102 0.667102C22.6047 0.561613 22.4617 0.50235 22.3125 0.50235H19.6875C19.5383 0.50235 19.3952 0.561613 19.2897 0.667102C19.1842 0.772592 19.125 0.915665 19.125 1.06485V4.46844L14.9282 1.01563C14.5255 0.684215 14.0201 0.503012 13.4986 0.503012C12.977 0.503012 12.4716 0.684215 12.0689 1.01563L0.203408 10.7877C0.146449 10.8347 0.0993241 10.8926 0.0647266 10.9579C0.0301291 11.0232 0.00873668 11.0946 0.00177171 11.1682C-0.00519326 11.2418 0.0024057 11.316 0.0241344 11.3866C0.0458631 11.4573 0.0812957 11.5229 0.128408 11.5798L1.32372 13.033C1.3707 13.0901 1.42849 13.1374 1.49378 13.1722C1.55907 13.2069 1.63057 13.2285 1.7042 13.2356C1.77783 13.2427 1.85213 13.2352 1.92286 13.2135C1.99358 13.1919 2.05935 13.1565 2.11638 13.1094L13.1423 4.02782C13.2439 3.94594 13.3704 3.90129 13.5009 3.90129C13.6314 3.90129 13.7579 3.94594 13.8595 4.02782L24.8859 13.1094C24.9428 13.1565 25.0085 13.1919 25.0791 13.2136C25.1498 13.2354 25.224 13.243 25.2975 13.236C25.3711 13.229 25.4426 13.2077 25.5079 13.1731C25.5732 13.1385 25.631 13.0913 25.6781 13.0344L26.8734 11.5813C26.9205 11.524 26.9557 11.458 26.9772 11.3871C26.9987 11.3161 27.0059 11.2416 26.9985 11.1679C26.9911 11.0941 26.9692 11.0226 26.9341 10.9573C26.8989 10.8921 26.8512 10.8344 26.7937 10.7877Z" fill="#000"/>
</svg>
