<svg width="21" height="28" viewBox="0 0 21 28" fill="none" xmlns="http://www.w3.org/2000/svg">
<path d="M12.2445 1.20806C11.7687 -0.366943 9.29688 -0.438037 8.75547 1.20806C5.96641 9.83228 0 12.1784 0 18.2596C0 23.6409 4.69766 27.9995 10.5 27.9995C16.3023 27.9995 21 23.6409 21 18.2596C21 12.151 15.0445 9.87603 12.2445 1.20806ZM5.25 15.7495C5.25 14.7815 6.03203 13.9995 7 13.9995C7.96797 13.9995 8.75 14.7815 8.75 15.7495C8.75 16.7174 7.96797 17.4995 7 17.4995C6.03203 17.4995 5.25 16.7174 5.25 15.7495ZM7.95703 22.9573C7.80391 23.1487 7.53047 23.176 7.34453 23.0229L6.66094 22.476C6.475 22.3229 6.44219 22.0495 6.59531 21.8635L13.0484 13.7971C13.2016 13.6112 13.475 13.5784 13.6609 13.7315L14.3445 14.2784C14.5359 14.4315 14.5633 14.7049 14.4102 14.8909L7.95703 22.9573ZM14 22.7495C13.032 22.7495 12.25 21.9674 12.25 20.9995C12.25 20.0315 13.032 19.2495 14 19.2495C14.968 19.2495 15.75 20.0315 15.75 20.9995C15.75 21.9674 14.968 22.7495 14 22.7495Z" fill="#000"/>
</svg>
