<svg width="16" height="16" viewBox="0 0 16 16" fill="none" xmlns="http://www.w3.org/2000/svg">
<path d="M8 0C3.58203 0 0 3.58332 0 8C0 12.4193 3.58203 16 8 16C12.418 16 16 12.4193 16 8C16 3.58332 12.418 0 8 0ZM8 3.54839C8.74826 3.54839 9.35484 4.15497 9.35484 4.90323C9.35484 5.65148 8.74826 6.25806 8 6.25806C7.25174 6.25806 6.64516 5.65148 6.64516 4.90323C6.64516 4.15497 7.25174 3.54839 8 3.54839ZM9.80645 11.7419C9.80645 11.9557 9.63313 12.129 9.41935 12.129H6.58064C6.36687 12.129 6.19355 11.9557 6.19355 11.7419V10.9677C6.19355 10.754 6.36687 10.5806 6.58064 10.5806H6.96774V8.51613H6.58064C6.36687 8.51613 6.19355 8.34281 6.19355 8.12903V7.35484C6.19355 7.14106 6.36687 6.96774 6.58064 6.96774H8.64516C8.85894 6.96774 9.03226 7.14106 9.03226 7.35484V10.5806H9.41935C9.63313 10.5806 9.80645 10.754 9.80645 10.9677V11.7419Z" fill="#000"/>
</svg>
