<svg width="26" height="26" viewBox="0 0 26 26" fill="none" xmlns="http://www.w3.org/2000/svg">
<path d="M13.0006 8.125C10.3142 8.125 8.12539 10.3137 8.12539 13C8.12539 15.6863 10.3142 17.875 13.0006 17.875C15.6871 17.875 17.8759 15.6863 17.8759 13C17.8759 10.3137 15.6871 8.125 13.0006 8.125ZM25.5137 12.2129L20.7045 9.81094L22.4058 4.7125C22.6343 4.02187 21.9792 3.3668 21.2936 3.60039L16.1949 5.30156L13.7878 0.4875C13.4628 -0.1625 12.5385 -0.1625 12.2135 0.4875L9.81141 5.29648L4.70765 3.59531C4.01699 3.3668 3.36188 4.02187 3.59549 4.70742L5.29674 9.80586L0.487524 12.2129C-0.162508 12.5379 -0.162508 13.4621 0.487524 13.7871L5.29674 16.1891L3.59549 21.2926C3.36696 21.9832 4.02207 22.6383 4.70765 22.4047L9.80634 20.7035L12.2084 25.5125C12.5334 26.1625 13.4577 26.1625 13.7827 25.5125L16.1848 20.7035L21.2835 22.4047C21.9741 22.6332 22.6292 21.9781 22.3956 21.2926L20.6944 16.1941L25.5036 13.7922C26.1638 13.4621 26.1638 12.5379 25.5137 12.2129ZM17.5966 17.5957C15.0624 20.1297 10.9388 20.1297 8.4047 17.5957C5.8706 15.0617 5.8706 10.9383 8.4047 8.4043C10.9388 5.87031 15.0624 5.87031 17.5966 8.4043C20.1307 10.9383 20.1307 15.0617 17.5966 17.5957Z" fill="#000"/>
</svg>
