<svg width="15" height="12" viewBox="0 0 15 12" fill="none" xmlns="http://www.w3.org/2000/svg">
<path d="M14.7924 6.53083L9.79215 11.78C9.3457 12.2486 8.57185 11.9206 8.57185 11.2488V8.24929H4.52403C4.12818 8.24929 3.80971 7.91498 3.80971 7.49942V4.49992C3.80971 4.08436 4.12818 3.75004 4.52403 3.75004H8.57185V0.75054C8.57185 0.0819011 9.34272 -0.249294 9.79215 0.219378L14.7924 5.46851C15.0692 5.76221 15.0692 6.23713 14.7924 6.53083ZM5.71457 11.6237V10.3739C5.71457 10.1677 5.55385 9.999 5.35741 9.999H2.85728C2.33047 9.999 1.90486 9.5522 1.90486 8.99917V3.00017C1.90486 2.44713 2.33047 2.00033 2.85728 2.00033H5.35741C5.55385 2.00033 5.71457 1.83161 5.71457 1.62539V0.375602C5.71457 0.169387 5.55385 0.000664533 5.35741 0.000664533H2.85728C1.27983 0.000664533 0 1.34419 0 3.00017V8.99917C0 10.6551 1.27983 11.9987 2.85728 11.9987H5.35741C5.55385 11.9987 5.71457 11.83 5.71457 11.6237Z" fill="#000"/>
</svg>
