<svg width="20" height="21" viewBox="0 0 20 21" fill="none" xmlns="http://www.w3.org/2000/svg">
<path d="M18.5714 8.34375H12.1429V1.875C12.1429 1.08123 11.5031 0.4375 10.7143 0.4375H9.28571C8.49687 0.4375 7.85714 1.08123 7.85714 1.875V8.34375H1.42857C0.639732 8.34375 0 8.98748 0 9.78125V11.2188C0 12.0125 0.639732 12.6562 1.42857 12.6562H7.85714V19.125C7.85714 19.9188 8.49687 20.5625 9.28571 20.5625H10.7143C11.5031 20.5625 12.1429 19.9188 12.1429 19.125V12.6562H18.5714C19.3603 12.6562 20 12.0125 20 11.2188V9.78125C20 8.98748 19.3603 8.34375 18.5714 8.34375Z" fill="#FEFEFE"/>
</svg>
