<svg width="19" height="19" viewBox="0 0 19 19" fill="none" xmlns="http://www.w3.org/2000/svg">
<path d="M12.5059 10.6875H9.83027L10.6689 7.82637C10.7617 7.47383 10.4982 7.125 10.1309 7.125H7.08789C6.80957 7.125 6.57207 7.33281 6.53496 7.60742L5.94121 12.4316C5.89668 12.7656 6.15645 13.0625 6.49414 13.0625H9.5L8.32734 18.3135C8.2457 18.666 8.51289 19 8.86914 19C9.06211 19 9.24766 18.8998 9.35156 18.7217L12.9883 11.5225C13.1998 11.1514 12.9326 10.6875 12.5059 10.6875ZM15.4375 4.75C15.4152 4.75 15.3967 4.75742 15.3781 4.75742C15.4189 4.56445 15.4375 4.36406 15.4375 4.15625C15.4375 2.51602 14.109 1.1875 12.4688 1.1875C11.5559 1.1875 10.7506 1.60684 10.2051 2.25625C9.51484 0.920312 8.13809 0 6.53125 0C4.23418 0 2.375 1.85918 2.375 4.15625C2.375 4.42715 2.40469 4.68691 2.45293 4.94297C1.03164 5.41055 0 6.73535 0 8.3125C0 10.2793 1.5957 11.875 3.5625 11.875H4.76855L5.35859 7.45156C5.47363 6.58691 6.21582 5.9375 7.08789 5.9375H10.2422C10.7877 5.9375 11.2924 6.18613 11.6264 6.62031C11.9604 7.05449 12.068 7.60371 11.927 8.13066L11.5225 9.64844H12.6543C13.274 9.64844 13.8529 9.98242 14.1646 10.5205C14.4021 10.9361 14.4541 11.426 14.3242 11.875H15.4375C17.4043 11.875 19 10.2793 19 8.3125C19 6.3457 17.4043 4.75 15.4375 4.75Z" fill="#005F7E"/>
</svg>
