<svg width="32" height="22" viewBox="0 0 32 22" fill="none" xmlns="http://www.w3.org/2000/svg">
<path fill-rule="evenodd" clip-rule="evenodd" d="M26.7024 6.56922C26.117 5.09724 25.2187 3.75578 24.0071 2.54483L26.544 0.00415039C28.4284 1.88981 29.7268 4.01848 30.4387 6.39035C30.8737 7.83543 31.0919 9.37057 31.0932 10.996V11.0002C31.0926 13.3764 30.6279 15.5593 29.6988 17.5488C28.9512 19.1575 27.9008 20.6398 26.548 21.996L24.0029 19.4513C24.932 18.5217 25.6761 17.5162 26.2349 16.435C27.0816 14.7977 27.5044 12.9861 27.5034 11.0001V10.996C27.5053 9.40907 27.2386 7.93353 26.7024 6.56922Z" fill="#000"/>
<path fill-rule="evenodd" clip-rule="evenodd" d="M22.2303 4.35779C22.8429 4.97437 23.3525 5.63427 23.759 6.33742H23.7632C24.5631 7.72067 24.9628 9.27069 24.9625 10.9878V10.9959C24.9622 12.7787 24.5326 14.383 23.6736 15.8091H23.6696C23.2731 16.4612 22.7866 17.0764 22.2099 17.6546V17.6504L22.206 17.6546L19.6609 15.1098C19.8265 14.9387 19.9796 14.7639 20.1203 14.5854V14.5812C20.9467 13.5561 21.3614 12.3609 21.3645 10.9959V10.9878C21.3631 9.3852 20.7969 8.01803 19.6651 6.88624L22.2141 4.3334C22.2199 4.34116 22.2252 4.34926 22.2303 4.35779Z" fill="#000"/>
<path fill-rule="evenodd" clip-rule="evenodd" d="M13.4367 8.86995C14.0195 8.28655 14.7241 7.99527 15.5508 7.99597C16.3788 7.99527 17.0848 8.28655 17.6689 8.86995L17.6731 8.87407C18.2539 9.45733 18.5438 10.1619 18.543 10.9879V10.996C18.5419 11.8203 18.2504 12.5235 17.6689 13.1058C17.6668 13.1076 17.6656 13.1105 17.6649 13.1139C17.0805 13.6918 16.376 13.9804 15.5508 13.9798C14.7251 13.9804 14.0218 13.6904 13.4407 13.1098L13.4366 13.1058C12.8559 12.5247 12.5646 11.8226 12.5625 11.0001C12.5625 10.9959 12.5625 10.9919 12.5625 10.9878C12.5617 10.1643 12.8504 9.46089 13.4285 8.87805C13.431 8.87568 13.4337 8.87302 13.4367 8.86995Z" fill="#000"/>
<path fill-rule="evenodd" clip-rule="evenodd" d="M6.13093 10.9878C6.13051 10.8728 6.13191 10.7592 6.13505 10.6464C6.21282 8.19235 7.12892 6.08807 8.88331 4.3334L11.4283 6.87813C10.2953 8.01244 9.73011 9.38234 9.73297 10.9878C9.73297 10.992 9.73297 10.9959 9.73297 11.0001C9.73192 11.1791 9.73877 11.3553 9.7533 11.5285V11.5325C9.86579 12.9081 10.4242 14.0992 11.4283 15.1058C11.4308 15.1084 11.4334 15.111 11.4365 15.1139L8.88736 17.6587L8.88331 17.6546C7.05018 15.8178 6.13275 13.5996 6.13093 11.0001C6.13093 10.9959 6.13093 10.9919 6.13093 10.9878Z" fill="#000"/>
<path fill-rule="evenodd" clip-rule="evenodd" d="M0.134288 8.84961C0.561949 5.46521 2.03372 2.51531 4.54938 0L7.09432 2.5448C5.04998 4.58767 3.89947 7.00097 3.6427 9.78458C3.60707 10.1815 3.58939 10.5866 3.58988 11.0001C3.59002 14.2983 4.75556 17.1152 7.08621 19.4512L7.09026 19.4553L4.54526 22L4.5412 21.9959C1.5118 18.9596 -0.00195441 15.2942 1.89372e-06 11.0001C0.000421101 10.2646 0.0451366 9.54766 0.134288 8.84961Z" fill="#000"/>
</svg>
