<svg width="25" height="25" viewBox="0 0 25 25" fill="none" xmlns="http://www.w3.org/2000/svg">
<path d="M5.55713 12.5H10.9375V3.90625C10.9375 3.69905 11.0198 3.50034 11.1663 3.35382C11.3128 3.20731 11.5115 3.125 11.7188 3.125H13.2812C13.4885 3.125 13.6872 3.20731 13.8337 3.35382C13.9802 3.50034 14.0625 3.69905 14.0625 3.90625V12.5H19.4429C19.6041 12.4999 19.7621 12.5447 19.8993 12.6295C20.0365 12.7142 20.1473 12.8354 20.2194 12.9796C20.2915 13.1238 20.322 13.2853 20.3075 13.4458C20.293 13.6064 20.234 13.7597 20.1372 13.8887L16.8403 17.7085L15.625 18.9238V25H9.375V18.9238L8.15967 17.7085L4.86279 13.8887C4.76599 13.7597 4.70702 13.6064 4.69249 13.4458C4.67797 13.2853 4.70847 13.1238 4.78057 12.9796C4.85267 12.8354 4.96352 12.7142 5.10068 12.6295C5.23785 12.5447 5.39591 12.4999 5.55713 12.5ZM17.5781 7.42188C17.3463 7.42188 17.1198 7.35315 16.9271 7.22438C16.7344 7.09561 16.5841 6.91259 16.4955 6.69846C16.4068 6.48433 16.3835 6.2487 16.4288 6.02138C16.474 5.79406 16.5856 5.58525 16.7495 5.42136C16.9134 5.25747 17.1222 5.14586 17.3495 5.10064C17.5768 5.05543 17.8124 5.07863 18.0266 5.16733C18.2407 5.25603 18.4237 5.40623 18.5525 5.59894C18.6813 5.79166 18.75 6.01823 18.75 6.25C18.75 6.5608 18.6265 6.85887 18.4068 7.07864C18.187 7.29841 17.8889 7.42188 17.5781 7.42188ZM20.7031 4.6875C20.4713 4.6875 20.2448 4.61877 20.0521 4.49C19.8594 4.36124 19.7091 4.17821 19.6205 3.96408C19.5318 3.74995 19.5085 3.51433 19.5538 3.287C19.599 3.05968 19.7106 2.85087 19.8745 2.68698C20.0384 2.5231 20.2472 2.41148 20.4745 2.36627C20.7018 2.32105 20.9374 2.34426 21.1516 2.43295C21.3657 2.52165 21.5487 2.67185 21.6775 2.86457C21.8063 3.05728 21.875 3.28385 21.875 3.51563C21.875 3.82643 21.7515 4.1245 21.5318 4.34427C21.312 4.56404 21.0139 4.6875 20.7031 4.6875ZM19.5312 8.20313C19.5312 7.97135 19.6 7.74478 19.7287 7.55207C19.8575 7.35935 20.0405 7.20915 20.2547 7.12045C20.4688 7.03176 20.7044 7.00855 20.9317 7.05377C21.1591 7.09898 21.3679 7.2106 21.5318 7.37449C21.6957 7.53837 21.8073 7.74718 21.8525 7.9745C21.8977 8.20183 21.8745 8.43745 21.7858 8.65158C21.6971 8.86572 21.5469 9.04874 21.3542 9.1775C21.1615 9.30627 20.9349 9.375 20.7031 9.375C20.3923 9.375 20.0943 9.25154 19.8745 9.03177C19.6547 8.812 19.5312 8.51393 19.5312 8.20313ZM23.8281 5.07813C24.0599 5.07813 24.2865 5.14685 24.4792 5.27562C24.6719 5.40439 24.8221 5.58741 24.9108 5.80154C24.9995 6.01568 25.0227 6.2513 24.9775 6.47862C24.9323 6.70594 24.8207 6.91475 24.6568 7.07864C24.4929 7.24253 24.2841 7.35414 24.0567 7.39936C23.8294 7.44458 23.5938 7.42137 23.3797 7.33267C23.1655 7.24398 22.9825 7.09377 22.8537 6.90106C22.725 6.70835 22.6562 6.48178 22.6562 6.25C22.6562 5.9392 22.7797 5.64113 22.9995 5.42136C23.2193 5.20159 23.5173 5.07813 23.8281 5.07813ZM23.8281 5.2739e-07C24.0599 5.2739e-07 24.2865 0.0687298 24.4792 0.197497C24.6719 0.326264 24.8221 0.509286 24.9108 0.723418C24.9995 0.937551 25.0227 1.17318 24.9775 1.4005C24.9323 1.62782 24.8207 1.83663 24.6568 2.00052C24.4929 2.16441 24.2841 2.27602 24.0567 2.32123C23.8294 2.36645 23.5938 2.34324 23.3797 2.25455C23.1655 2.16585 22.9825 2.01565 22.8537 1.82293C22.725 1.63022 22.6562 1.40365 22.6562 1.17188C22.6562 0.861075 22.7797 0.563004 22.9995 0.343235C23.2193 0.123466 23.5173 5.2739e-07 23.8281 5.2739e-07ZM23.8281 10.1563C24.0599 10.1563 24.2865 10.225 24.4792 10.3537C24.6719 10.4825 24.8221 10.6655 24.9108 10.8797C24.9995 11.0938 25.0227 11.3294 24.9775 11.5567C24.9323 11.7841 24.8207 11.9929 24.6568 12.1568C24.4929 12.3207 24.2841 12.4323 24.0567 12.4775C23.8294 12.5227 23.5938 12.4995 23.3797 12.4108C23.1655 12.3221 22.9825 12.1719 22.8537 11.9792C22.725 11.7865 22.6562 11.5599 22.6562 11.3281C22.6562 11.0173 22.7797 10.7193 22.9995 10.4995C23.2193 10.2797 23.5173 10.1563 23.8281 10.1563ZM7.42188 7.42188C7.1901 7.42188 6.96353 7.35315 6.77082 7.22438C6.5781 7.09561 6.4279 6.91259 6.3392 6.69846C6.25051 6.48433 6.2273 6.2487 6.27252 6.02138C6.31773 5.79406 6.42935 5.58525 6.59324 5.42136C6.75712 5.25747 6.96593 5.14586 7.19325 5.10064C7.42058 5.05543 7.6562 5.07863 7.87033 5.16733C8.08446 5.25603 8.26749 5.40623 8.39625 5.59894C8.52502 5.79166 8.59375 6.01823 8.59375 6.25C8.59375 6.5608 8.47028 6.85887 8.25051 7.07864C8.03075 7.29841 7.73268 7.42188 7.42188 7.42188ZM4.29688 7.8125C4.52865 7.8125 4.75522 7.88123 4.94793 8.01C5.14065 8.13876 5.29085 8.32179 5.37955 8.53592C5.46824 8.75005 5.49145 8.98568 5.44623 9.213C5.40102 9.44032 5.2894 9.64913 5.12551 9.81302C4.96163 9.97691 4.75282 10.0885 4.5255 10.1337C4.29817 10.179 4.06255 10.1557 3.84842 10.067C3.63429 9.97835 3.45126 9.82815 3.3225 9.63543C3.19373 9.44272 3.125 9.21615 3.125 8.98438C3.125 8.67358 3.24847 8.3755 3.46824 8.15574C3.688 7.93597 3.98607 7.8125 4.29688 7.8125ZM4.29688 3.125C4.52865 3.125 4.75522 3.19373 4.94793 3.3225C5.14065 3.45126 5.29085 3.63429 5.37955 3.84842C5.46824 4.06255 5.49145 4.29818 5.44623 4.5255C5.40102 4.75282 5.2894 4.96163 5.12551 5.12552C4.96163 5.28941 4.75282 5.40102 4.5255 5.44623C4.29817 5.49145 4.06255 5.46824 3.84842 5.37955C3.63429 5.29085 3.45126 5.14065 3.3225 4.94793C3.19373 4.75522 3.125 4.52865 3.125 4.29688C3.125 3.98607 3.24847 3.688 3.46824 3.46823C3.688 3.24847 3.98607 3.125 4.29688 3.125ZM1.17188 5.07813C1.40365 5.07813 1.63022 5.14685 1.82293 5.27562C2.01565 5.40439 2.16585 5.58741 2.25455 5.80154C2.34324 6.01568 2.36645 6.2513 2.32123 6.47862C2.27602 6.70594 2.1644 6.91475 2.00051 7.07864C1.83663 7.24253 1.62782 7.35414 1.4005 7.39936C1.17317 7.44458 0.937551 7.42137 0.723419 7.33267C0.509287 7.24398 0.326263 7.09377 0.197496 6.90106C0.0687294 6.70835 0 6.48178 0 6.25C0 5.9392 0.123466 5.64113 0.343235 5.42136C0.563004 5.20159 0.861074 5.07813 1.17188 5.07813ZM1.17188 10.1563C1.40365 10.1563 1.63022 10.225 1.82293 10.3537C2.01565 10.4825 2.16585 10.6655 2.25455 10.8797C2.34324 11.0938 2.36645 11.3294 2.32123 11.5567C2.27602 11.7841 2.1644 11.9929 2.00051 12.1568C1.83663 12.3207 1.62782 12.4323 1.4005 12.4775C1.17317 12.5227 0.937551 12.4995 0.723419 12.4108C0.509287 12.3221 0.326263 12.1719 0.197496 11.9792C0.0687294 11.7865 0 11.5599 0 11.3281C0 11.0173 0.123466 10.7193 0.343235 10.4995C0.563004 10.2797 0.861074 10.1563 1.17188 10.1563ZM1.17188 2.34375C0.9401 2.34375 0.71353 2.27502 0.520817 2.14625C0.328102 2.01749 0.1779 1.83446 0.0892048 1.62033C0.000507355 1.4062 -0.0226994 1.17058 0.0225163 0.943254C0.0677338 0.715933 0.179346 0.507124 0.343235 0.343235C0.507124 0.179345 0.715933 0.0677348 0.943254 0.0225178C1.17058 -0.0226993 1.4062 0.000507757 1.62033 0.0892042C1.83446 0.177901 2.01749 0.328103 2.14625 0.520817C2.27502 0.71353 2.34375 0.940101 2.34375 1.17188C2.34375 1.48268 2.22028 1.78075 2.00051 2.00052C1.78075 2.22029 1.48268 2.34375 1.17188 2.34375Z" fill="#000"/>
</svg>
