<svg width="33" height="26" viewBox="0 0 33 26" fill="none" xmlns="http://www.w3.org/2000/svg">
<path d="M26.401 16.25H26.3185C25.937 14.3965 24.2718 13 22.2767 13C21.0084 13 19.8897 13.5738 19.1319 14.4625C18.1729 12.6395 16.2551 11.375 14.028 11.375C11.0223 11.375 8.58382 13.6449 8.31058 16.5344C6.36182 17.1895 4.95438 18.9871 4.95438 21.125C4.95438 23.8164 7.17122 26 9.90361 26H26.401C29.1334 26 31.3503 23.8164 31.3503 21.125C31.3503 18.4336 29.1334 16.25 26.401 16.25ZM28.8756 8.125H27.9683C27.5868 6.27148 25.9216 4.875 23.9264 4.875C21.9313 4.875 20.2661 6.27148 19.8846 8.125H18.9772C17.5543 8.125 16.3067 8.83086 15.5643 9.90742C17.0645 10.2223 18.4256 10.9891 19.4618 12.1062C20.3125 11.6289 21.2817 11.3699 22.2767 11.3699C24.576 11.3699 26.6227 12.7207 27.5404 14.7164C28.5972 14.8992 29.5562 15.341 30.3759 15.9555C31.9122 15.3613 33 13.8988 33 12.1824C33 9.94297 31.1544 8.125 28.8756 8.125ZM6.82581 15.3969C6.94954 14.8738 7.14029 14.3863 7.36713 13.9191C7.02687 13.716 6.69692 13.4875 6.40306 13.198C4.47493 11.2988 4.47493 8.20625 6.40306 6.30195C8.3312 4.40273 11.4709 4.40273 13.4042 6.30195C14.0331 6.92148 14.4301 7.66797 14.6466 8.45508C14.9611 8.09961 15.3117 7.77969 15.7086 7.51055L17.0645 3.5293C17.2398 3.01133 16.7397 2.52383 16.2139 2.69648L12.3318 3.97109L10.5016 0.365625C10.2542 -0.121875 9.54788 -0.121875 9.30042 0.365625L7.47024 3.97109L3.58819 2.69648C3.06233 2.52383 2.56741 3.01641 2.73754 3.53437L4.03156 7.3582L0.371192 9.16094C-0.123731 9.40469 -0.123731 10.1004 0.371192 10.3441L4.03156 12.1469L2.73754 15.9707C2.56226 16.4887 3.06233 16.9762 3.58819 16.8086L5.78956 16.0875C6.11436 15.8285 6.45462 15.5898 6.82581 15.3969ZM6.60412 9.75C6.60412 10.9383 7.26402 11.9742 8.2384 12.5379C9.42931 11.0398 11.1873 10.0395 13.1979 9.82109C13.1979 9.7957 13.2031 9.77539 13.2031 9.75C13.2031 7.95742 11.7235 6.5 9.90361 6.5C8.08374 6.5 6.60412 7.95742 6.60412 9.75Z" fill="#000"/>
</svg>
