<svg width="14" height="29" viewBox="0 0 14 29" fill="none" xmlns="http://www.w3.org/2000/svg">
<path d="M3.50001 21.75C3.50001 23.752 5.06703 25.375 7.00002 25.375C8.933 25.375 10.5 23.752 10.5 21.75C10.5 20.4085 9.79586 19.238 8.75002 18.6111V12.6875C8.75002 11.6865 7.96651 10.875 7.00002 10.875C6.03352 10.875 5.25002 11.6865 5.25002 12.6875V18.6111C4.20417 19.238 3.50001 20.4085 3.50001 21.75ZM1.75001 16.9552C0.661076 18.2332 1.33514e-05 19.9115 1.33514e-05 21.75C1.33514e-05 25.7543 3.13377 29 7.00002 29C7.01637 29 7.03332 28.9999 7.04973 28.9998C10.8944 28.9722 14.0195 25.6942 13.9999 21.7122C13.9909 19.8885 13.3315 18.2244 12.25 16.9552V5.4375C12.25 2.43447 9.89949 0 7.00002 0C4.10054 0 1.75001 2.43447 1.75001 5.4375V16.9552ZM2.62501 21.75C2.62501 19.805 3.68431 18.7939 4.37502 17.9833V5.4375C4.37502 3.93839 5.5526 2.71875 7.00002 2.71875C8.44743 2.71875 9.62502 3.93839 9.62502 5.4375V17.9833C10.3213 18.8005 11.3654 19.8014 11.375 21.7261C11.3872 24.2113 9.43011 26.2639 7.03152 26.2811L7.00002 26.2812C4.58764 26.2812 2.62501 24.2485 2.62501 21.75Z" fill="#000"/>
</svg>
