<svg width="223" height="223" viewBox="0 0 223 223" fill="none" xmlns="http://www.w3.org/2000/svg">
<path d="M103.678 97.3396L107.278 79.2345L112.41 80.2535L108.29 100.973C106.96 99.5498 105.409 98.3248 103.678 97.3396ZM41.0764 68.5318L44.8188 49.7112L70.5173 54.8209L74.4207 77.5038L55.0045 73.6415C63.3134 79.6878 67.8238 90.2032 65.6885 100.943C65.3289 102.745 64.8007 104.472 64.1189 106.109L75.185 108.312C78.2455 98.9654 87.8731 93.1627 97.7629 95.1294C99.1078 95.3954 100.389 95.7962 101.603 96.3057L104.165 83.419L98.19 82.2314L101.104 67.584L97.4108 66.8498L98.9654 59.0316L95.3916 53.6859L92.4509 55.6526L95.208 59.7808L93.9381 66.1605L90.694 65.5162L87.7795 80.1636L78.0695 78.2306L73.664 52.8505L77.6537 53.6447L78.5677 49.0519L36.2701 40.6381L35.356 45.2308L39.533 46.0625L35.0226 68.7453C36.9968 68.4531 39.0235 68.3745 41.0764 68.5318Z" fill="#86B740"/>
<path d="M147.268 116.291H166.617L156.941 122.742L147.268 116.291ZM159.578 105.308H154.311V109.642H159.578V105.308ZM93.1402 118.393C95.3054 118.824 97.407 117.419 97.8378 115.254C98.2686 113.088 96.8638 110.983 94.6986 110.552C92.5333 110.121 90.428 111.526 90.0009 113.691C89.5701 115.857 90.9749 117.958 93.1402 118.393ZM37.7123 102.24C41.3536 102.963 44.8937 100.599 45.6167 96.9575C46.3397 93.3162 43.9759 89.7761 40.3346 89.0531C36.6934 88.3301 33.1533 90.694 32.4303 94.3352C31.7035 97.9764 34.0711 101.517 37.7123 102.24ZM207.03 122.259C177.634 124.739 150.475 132.179 127.387 143.323C128.451 143.904 129.515 144.485 130.56 145.084C152.513 134.801 178.125 127.878 205.783 125.383C204.513 128.361 203.108 131.272 201.572 134.097C179.129 136.738 158.267 142.567 140.053 150.913C141.038 151.557 142.038 152.194 143.001 152.857C159.919 145.331 179.103 139.974 199.703 137.348C197.796 140.566 195.732 143.683 193.495 146.661C178.413 149.28 164.298 153.554 151.542 159.155C152.427 159.848 153.333 160.529 154.195 161.237C165.396 156.457 177.657 152.73 190.686 150.239C187.363 154.281 183.725 158.053 179.829 161.541C173.54 163.347 167.516 165.501 161.784 167.947C162.567 168.685 163.354 169.423 164.114 170.176C167.235 168.88 170.453 167.681 173.746 166.572C169.146 170.093 164.242 173.225 159.076 175.934C128.335 143.829 75.7619 122.353 15.8574 121.386C15.1494 119.509 14.4751 117.614 13.8757 115.684C17.6331 115.714 21.3567 115.831 25.0542 116.01C17.161 110.59 12.8193 100.816 14.8047 90.8288C17.4645 77.4514 30.4673 68.7641 43.8448 71.4238C57.2222 74.0836 65.9095 87.0864 63.2498 100.464C61.6202 108.653 56.1096 115.066 49.0219 118.213C59.8707 119.723 70.3487 121.914 80.4108 124.656C77.6087 120.937 76.3313 116.097 77.309 111.167C79.1334 101.989 88.0529 96.0284 97.2309 97.8566C106.409 99.6809 112.365 108.6 110.541 117.775C109.301 124.008 104.787 128.747 99.1452 130.583C106.48 133.265 113.5 136.284 120.202 139.592C122.746 138.337 125.338 137.127 127.975 135.962V132.924C126.039 132.302 124.608 130.249 124.608 127.788C124.608 124.836 129.178 111.309 129.178 111.309C129.178 111.309 133.748 124.836 133.748 127.788C133.748 130.253 132.317 132.306 130.381 132.924V134.913C133.415 133.617 136.49 132.362 139.637 131.186V108.065L147.572 101.333L156.956 97.1972L157.199 97.3059H172.352C172.513 97.3059 172.671 97.3396 172.817 97.3995L181.736 101.333C181.841 101.378 181.935 101.438 182.021 101.513L189.266 107.72C189.521 107.937 189.667 108.256 189.667 108.593V118.483C192.368 118.089 195.091 117.741 197.833 117.43V111.373C194.185 110.612 191.409 106.9 191.409 102.408C191.409 97.3696 199.205 74.2859 199.205 74.2859C199.205 74.2859 207 97.3658 207 102.408C207 106.896 204.224 110.608 200.576 111.373V117.097C203.408 116.805 206.27 116.561 209.143 116.355C208.495 118.352 207.783 120.318 207.03 122.259ZM92.2036 123.094C96.965 124.042 101.595 120.948 102.543 116.186C103.491 111.421 100.396 106.795 95.6351 105.847C90.8738 104.899 86.2435 107.994 85.2958 112.755C84.348 117.52 87.4423 122.147 92.2036 123.094ZM36.5436 108.102C43.4252 109.47 50.1121 105.004 51.4794 98.1225C52.8467 91.2409 48.3813 84.554 41.4997 83.1867C34.618 81.8194 27.9312 86.2847 26.5638 93.1664C25.1965 100.048 29.6656 106.735 36.5436 108.102ZM171.959 109.121L165.242 103.371L156.941 99.7109L148.643 103.371L141.926 109.121V130.347C143.691 129.71 145.47 129.084 147.268 128.485V118.074L155.603 123.634L149.366 127.792C151.003 127.264 152.666 126.762 154.333 126.264L156.944 124.525L157.956 125.2C158.585 125.024 159.229 124.862 159.863 124.69L158.278 123.634L166.617 118.074V122.933C168.385 122.506 170.164 122.098 171.959 121.704V109.121ZM184.093 114.122H178.826V118.457H184.093V114.122ZM28.0511 144.312C70.0565 147.602 106.581 163.35 129.511 186.014C133.819 185.254 138.041 184.254 142.147 182.973C115.965 156.319 72.4727 138.128 22.6229 135.779C24.2937 138.716 26.1031 141.563 28.0511 144.312ZM20.9259 132.681C72.9073 134.726 118.28 153.839 145.23 181.927C149.036 180.605 152.745 179.08 156.33 177.335C126.297 146.388 75.2524 125.627 17.0449 124.413C18.2137 127.238 19.5174 129.991 20.9259 132.681ZM60.0506 173.656C67.7526 176.241 74.9564 179.417 81.5309 183.104C89.3379 185.501 97.5419 186.992 106.019 187.445C89.6226 174.383 67.4379 164.751 42.1553 160.402C47.6059 165.444 53.6035 169.887 60.0506 173.656ZM38.4428 156.787C67.5129 161.08 92.8892 172.21 110.814 187.588C111.084 187.588 111.346 187.606 111.616 187.606C116.452 187.606 121.202 187.247 125.859 186.599C103.858 165.714 69.7006 151.104 30.4186 147.53C32.9061 150.774 35.5883 153.865 38.4428 156.787Z" fill="#A7744B"/>
<path d="M145.983 68.382C139.161 68.382 133.628 62.8527 133.628 56.0272C133.628 49.2055 139.158 43.6725 145.983 43.6725C152.805 43.6725 158.338 49.2055 158.338 56.0272C158.338 62.8527 152.805 68.382 145.983 68.382ZM147.695 40.1548L148.377 35.3935H143.589L144.271 40.1548H147.695ZM159.192 37.7498L155.206 35.4497L152.805 40.7804L155.772 42.4924L159.192 37.7498ZM165.051 47.7857L162.657 43.6387L159.518 46.2386L161.23 49.2055L165.051 47.7857ZM166.617 53.7533L161.503 54.3152V57.7392L166.617 58.3011V53.7533ZM165.051 64.2687L159.821 62.0398L158.109 65.0067L162.653 68.4194L165.051 64.2687ZM158.364 72.705L155.776 69.562L152.809 71.274L154.236 75.0876L158.364 72.705ZM143.32 76.6647H148.65L147.699 71.7685H144.275L143.32 76.6647ZM133.497 72.6488L137.835 75.1512L139.158 71.2777L136.191 69.5657L133.497 72.6488ZM128.612 69.311L132.336 65.6286L130.845 63.0475L125.791 64.4298L128.612 69.311ZM130.485 54.7123L125.346 54.1354V57.919L130.485 57.3421V54.7123ZM132.448 46.2348L128.609 42.7509L125.799 47.6209L130.736 49.2017L132.448 46.2348ZM139.158 40.7804L136.835 35.4047L132.699 37.7948L136.195 42.4962L139.158 40.7804Z" fill="#EDAD1D"/>
</svg>
