<svg width="29" height="25" viewBox="0 0 29 25" fill="none" xmlns="http://www.w3.org/2000/svg">
<path d="M8.8752 12.4993H0.906211C0.407795 12.4993 0 12.9011 0 13.3923V15.1782C0 15.6693 0.407795 16.0711 0.906211 16.0711H8.96016C9.86071 16.0711 10.7046 16.6795 10.8519 17.5557C11.0388 18.6719 10.1666 19.643 9.06211 19.643C8.26351 19.643 7.58385 19.1295 7.34031 18.4207C7.22137 18.0691 6.85322 17.857 6.47941 17.857H4.62168C4.06662 17.857 3.61918 18.3482 3.72113 18.8839C4.20822 21.3452 6.4171 23.2148 9.05644 23.2148C12.2905 23.2148 14.8732 20.4187 14.4484 17.1538C14.1029 14.4526 11.6335 12.4993 8.8752 12.4993ZM0.906211 10.7134H19.9366C23.3179 10.7134 25.9856 7.65499 25.2493 4.20036C24.8188 2.18004 23.1593 0.544811 21.109 0.120656C17.9713 -0.526739 15.1564 1.51032 14.6013 4.3343C14.4937 4.87008 14.9468 5.35563 15.4962 5.35563H17.3539C17.7334 5.35563 18.0959 5.14355 18.2148 4.79195C18.4584 4.08316 19.138 3.56971 19.9366 3.56971C21.0354 3.56971 21.9133 4.5408 21.7264 5.657C21.5791 6.53321 20.7409 7.14154 19.8347 7.14154H0.906211C0.407795 7.14154 0 7.54337 0 8.0345V9.82042C0 10.3115 0.407795 10.7134 0.906211 10.7134ZM22.6553 12.4993H13.8027C14.8958 13.4257 15.6831 14.6647 16.0569 16.0711H22.6553C24.1562 16.0711 25.3739 17.271 25.3739 18.75C25.3739 20.229 24.1562 21.4289 22.6553 21.4289C21.6414 21.4289 20.7692 20.8764 20.2991 20.0671C20.1349 19.7881 19.8064 19.643 19.4779 19.643H17.5635C16.9461 19.643 16.4874 20.2457 16.6969 20.8206C17.7051 23.6445 20.6899 25.5532 24.0259 24.8556C26.3594 24.3701 28.2794 22.5339 28.8232 20.2401C29.7917 16.1548 26.6483 12.4993 22.6553 12.4993Z" fill="#000"/>
</svg>
