<svg width="23" height="21" viewBox="0 0 23 21" fill="none" xmlns="http://www.w3.org/2000/svg">
<path d="M19.55 13.125C19.5284 13.125 19.5105 13.1332 19.4925 13.1332C19.532 12.9199 19.55 12.6984 19.55 12.4688C19.55 10.6559 18.2634 9.1875 16.675 9.1875C15.7909 9.1875 15.0111 9.65098 14.4828 10.3688C13.8144 8.89629 12.4775 7.875 10.925 7.875C8.70047 7.875 6.9 9.92988 6.9 12.4688C6.9 12.7682 6.92875 13.0553 6.97547 13.3383C5.59906 13.8551 4.6 15.3193 4.6 17.0625C4.6 19.2363 6.14531 21 8.05 21H19.55C21.4547 21 23 19.2363 23 17.0625C23 14.8887 21.4547 13.125 19.55 13.125ZM10.925 6.5625C12.3877 6.5625 13.7497 7.26797 14.7128 8.46973C15.065 8.24004 15.4495 8.08418 15.8484 7.98574C16.003 7.54277 16.1 7.07109 16.1 6.5625C16.1 4.38867 14.5547 2.625 12.65 2.625C12.1433 2.625 11.6653 2.75625 11.2305 2.98184C10.6591 1.24277 9.2 0 7.475 0C5.44812 0 3.78422 1.71855 3.5075 3.9457C3.48953 3.9457 3.47156 3.9375 3.45 3.9375C1.54531 3.9375 0 5.70117 0 7.875C0 10.0488 1.54531 11.8125 3.45 11.8125H5.8075C6.09859 8.86758 8.26922 6.5625 10.925 6.5625Z" fill="#000"/>
</svg>
