<svg width="23" height="23" viewBox="0 0 23 23" fill="none" xmlns="http://www.w3.org/2000/svg">
<path d="M11.5006 7.1875C9.12408 7.1875 7.18785 9.12363 7.18785 11.5C7.18785 13.8764 9.12408 15.8125 11.5006 15.8125C13.877 15.8125 15.8133 13.8764 15.8133 11.5C15.8133 9.12363 13.877 7.1875 11.5006 7.1875ZM22.5698 10.8037L18.3155 8.67891L19.8205 4.16875C20.0227 3.55781 19.4431 2.97832 18.8367 3.18496L14.3263 4.68984L12.1969 0.43125C11.9094 -0.14375 11.0917 -0.14375 10.8042 0.43125L8.67933 4.68535L4.16446 3.18047C3.55349 2.97832 2.97397 3.55781 3.18062 4.16426L4.68558 8.67441L0.431271 10.8037C-0.143757 11.0912 -0.143757 11.9088 0.431271 12.1963L4.68558 14.3211L3.18062 18.8357C2.97846 19.4467 3.55798 20.0262 4.16446 19.8195L8.67484 18.3146L10.7997 22.5687C11.0873 23.1437 11.9049 23.1437 12.1924 22.5687L14.3173 18.3146L18.8277 19.8195C19.4386 20.0217 20.0182 19.4422 19.8115 18.8357L18.3066 14.3256L22.5609 12.2008C23.1449 11.9088 23.1449 11.0912 22.5698 10.8037V10.8037ZM15.5662 15.5654C13.3245 17.807 9.67664 17.807 7.43493 15.5654C5.19322 13.3238 5.19322 9.67617 7.43493 7.43457C9.67664 5.19297 13.3245 5.19297 15.5662 7.43457C17.8079 9.67617 17.8079 13.3238 15.5662 15.5654Z" fill="#000"/>
</svg>
