<svg width="23" height="23" viewBox="0 0 23 23" fill="none" xmlns="http://www.w3.org/2000/svg">
<path d="M14.923 19.1547C10.7408 19.9498 6.90449 16.7424 6.90449 12.5197C6.90449 10.085 8.20723 7.84785 10.323 6.64395C10.651 6.45977 10.5656 5.96562 10.1973 5.89375C4.88301 4.91445 0 8.98438 0 14.375C0 19.1367 3.8543 23 8.61602 23C11.2754 23 13.7012 21.7916 15.3094 19.8061C15.5475 19.5141 15.2869 19.0828 14.923 19.1547ZM13.6562 4.3125L14.375 2.875L15.8125 2.15625L14.375 1.4375L13.6562 0L12.9375 1.4375L11.5 2.15625L12.9375 2.875L13.6562 4.3125ZM20.6057 8.14434L19.4062 5.75L18.2068 8.14434L15.8125 9.34375L18.2068 10.5432L19.4062 12.9375L20.6057 10.5432L23 9.34375L20.6057 8.14434Z" fill="#000"/>
</svg>
