<svg width="24" height="16" viewBox="0 0 24 16" fill="none" xmlns="http://www.w3.org/2000/svg">
<path d="M10.2222 7.5C9.74305 7.5 9.29983 7.63672 8.91649 7.85938C8.77674 6.25781 7.42309 5 5.75 5C4.20069 5 2.91094 6.07813 2.61944 7.50781C2.59948 7.50781 2.57951 7.5 2.55556 7.5C1.14601 7.5 0 8.62109 0 10C0 11.3789 1.14601 12.5 2.55556 12.5H10.2222C11.6318 12.5 12.7778 11.3789 12.7778 10C12.7778 8.62109 11.6318 7.5 10.2222 7.5ZM22.5727 11.6563C18.8552 12.3477 15.4451 9.55859 15.4451 5.88672C15.4451 3.76953 16.6031 1.82422 18.4839 0.777344C18.7753 0.617188 18.6995 0.1875 18.372 0.125C17.9089 0.0429686 17.4417 0 16.9745 0C13.3488 0 10.3181 2.46875 9.52344 5.78516C9.62326 5.94141 9.7191 6.10547 9.79896 6.27734C9.94271 6.26172 10.0825 6.25391 10.2262 6.25391C12.3385 6.25391 14.0595 7.9375 14.0595 10.0039C14.0595 11.4141 13.253 12.6289 12.075 13.2695C13.4007 14.3516 15.1097 15.0039 16.9745 15.0039C19.3384 15.0039 21.4946 13.9531 22.9241 12.2266C23.1318 11.9688 22.9002 11.5938 22.5727 11.6563V11.6563Z" fill="#000"/>
</svg>
