<svg width="23" height="19" viewBox="0 0 23 19" fill="none" xmlns="http://www.w3.org/2000/svg">
<path d="M20.7 8.3125C20.2687 8.3125 19.8698 8.44238 19.5248 8.65391C19.3991 7.13242 18.1808 5.9375 16.675 5.9375C15.2806 5.9375 14.1198 6.96172 13.8575 8.31992C13.8395 8.31992 13.8216 8.3125 13.8 8.3125C12.5314 8.3125 11.5 9.37754 11.5 10.6875C11.5 11.9975 12.5314 13.0625 13.8 13.0625H20.7C21.9686 13.0625 23 11.9975 23 10.6875C23 9.37754 21.9686 8.3125 20.7 8.3125V8.3125ZM15.4316 14.25H13.8C13.0022 14.25 12.2762 13.9568 11.6941 13.4893C9.91156 14.6768 7.50734 14.4689 5.94766 12.8621C4.15437 11.0104 4.15437 7.99707 5.94766 6.14531C7.74094 4.29355 10.6591 4.29355 12.4523 6.14531C12.7111 6.4125 12.9195 6.70566 13.1028 7.01367C13.5772 6.06738 14.3822 5.34375 15.3525 4.99121L15.852 3.44375C16.0137 2.93906 15.5502 2.46035 15.065 2.63105L11.4569 3.87422L9.75703 0.35625C9.52703 -0.11875 8.87297 -0.11875 8.64297 0.35625L6.94312 3.87051L3.33141 2.62734C2.84266 2.46035 2.37906 2.93906 2.54438 3.44004L3.74828 7.16582L0.345 8.9248C-0.115 9.1623 -0.115 9.8377 0.345 10.0752L3.74828 11.8305L2.54438 15.56C2.38266 16.0646 2.84625 16.5434 3.33141 16.3727L6.93953 15.1295L8.63937 18.6437C8.86937 19.1187 9.52344 19.1187 9.75344 18.6437L11.4533 15.1295L15.0614 16.3727C15.5502 16.5396 16.0137 16.0609 15.8484 15.56L15.4316 14.25ZM12.1073 7.59629C11.4928 6.60176 10.4219 5.9375 9.2 5.9375C7.29891 5.9375 5.75 7.53691 5.75 9.5C5.75 11.4631 7.29891 13.0625 9.2 13.0625C9.81812 13.0625 10.3895 12.8807 10.8927 12.5875C10.5548 12.0383 10.35 11.3889 10.35 10.6875C10.35 9.35898 11.0616 8.20859 12.1073 7.59629Z" fill="#000"/>
</svg>
