<svg width="23" height="21" viewBox="0 0 23 21" fill="none" xmlns="http://www.w3.org/2000/svg">
<path d="M13.9957 9.24902C13.7201 7.72324 12.4264 6.5625 10.8611 6.5625C10.37 6.5625 9.90677 6.68555 9.49149 6.89062C8.7967 5.90215 7.67066 5.25 6.38889 5.25C4.27257 5.25 2.55556 7.01367 2.55556 9.1875C2.55556 9.20801 2.56354 9.23262 2.56354 9.25313C1.10208 9.55254 0 10.8773 0 12.4688C0 14.2816 1.42951 15.75 3.19444 15.75H13.4167C15.1816 15.75 16.6111 14.2816 16.6111 12.4688C16.6111 10.8609 15.4851 9.52793 13.9957 9.24902ZM22.6766 9.1793C19.8655 9.7248 17.2859 7.52637 17.2859 4.63477C17.2859 2.96953 18.1604 1.43555 19.5819 0.611133C19.8016 0.483984 19.7457 0.143555 19.4981 0.0984375C19.1507 0.0328125 18.7953 0 18.4399 0C15.3293 0 12.8057 2.51016 12.674 5.65605C13.7401 6.14414 14.5986 7.04238 15.0259 8.18672C16.5073 8.77324 17.5814 10.1309 17.829 11.7469C18.0326 11.7674 18.2283 11.8084 18.4359 11.8084C20.2208 11.8084 21.854 10.9799 22.9321 9.62227C23.0998 9.42539 22.9241 9.13008 22.6766 9.1793ZM14.5547 17.1486C14.2512 16.9723 13.8599 17.0748 13.6842 17.3947L12.2227 20.0197C12.047 20.3355 12.1549 20.7334 12.4623 20.9139C12.5622 20.9713 12.67 21 12.7778 21C12.9974 21 13.213 20.8811 13.3328 20.6678L14.7943 18.0428C14.966 17.727 14.8622 17.3291 14.5547 17.1486V17.1486ZM10.7214 17.1486C10.4179 16.9723 10.0266 17.0748 9.85087 17.3947L8.38941 20.0197C8.21372 20.3355 8.32153 20.7334 8.62899 20.9139C8.72882 20.9713 8.83663 21 8.94444 21C9.16406 21 9.37969 20.8811 9.49948 20.6678L10.9609 18.0428C11.1326 17.727 11.0288 17.3291 10.7214 17.1486V17.1486ZM6.88802 17.1486C6.58455 16.9723 6.19323 17.0748 6.01753 17.3947L4.55608 20.0197C4.38038 20.3355 4.48819 20.7334 4.79566 20.9139C4.89549 20.9713 5.0033 21 5.11111 21C5.33073 21 5.54635 20.8811 5.66615 20.6678L7.1276 18.0428C7.29931 17.727 7.19549 17.3291 6.88802 17.1486V17.1486ZM3.05469 17.1486C2.75122 16.9723 2.3599 17.0748 2.1842 17.3947L0.722743 20.0197C0.547049 20.3355 0.654861 20.7334 0.962326 20.9139C1.06215 20.9713 1.16997 21 1.27778 21C1.4974 21 1.71302 20.8811 1.83281 20.6678L3.29427 18.0428C3.46597 17.727 3.36215 17.3291 3.05469 17.1486V17.1486Z" fill="#000"/>
</svg>
