<svg width="23" height="21" viewBox="0 0 23 21" fill="none" xmlns="http://www.w3.org/2000/svg">
<path d="M20.3845 9.24902C20.109 7.72324 18.8153 6.5625 17.25 6.5625C16.7589 6.5625 16.2957 6.68555 15.8804 6.89062C15.1856 5.90215 14.0595 5.25 12.7778 5.25C10.6615 5.25 8.94444 7.01367 8.94444 9.1875C8.94444 9.20801 8.95243 9.23262 8.95243 9.25313C7.49097 9.55664 6.38889 10.8773 6.38889 12.4688C6.38889 14.2816 7.8184 15.75 9.58333 15.75H19.8056C21.5705 15.75 23 14.2816 23 12.4688C23 10.8609 21.874 9.52793 20.3845 9.24902ZM4.95538 10.66C3.46198 9.12598 3.46198 6.62812 4.95538 5.09004C6.33698 3.6709 8.51319 3.58066 10.0146 4.78652C10.8132 4.25742 11.7556 3.9375 12.7778 3.9375C12.8057 3.9375 12.8297 3.9457 12.8576 3.9457L13.213 2.85059C13.3488 2.43223 12.9615 2.03848 12.5542 2.17793L9.5474 3.20742L8.12986 0.295313C7.9382 -0.0984375 7.39115 -0.0984375 7.19948 0.295313L5.78194 3.20742L2.77517 2.17793C2.36788 2.03848 1.98455 2.43633 2.12031 2.85469L3.12257 5.94316L0.2875 7.39922C-0.0958333 7.59609 -0.0958333 8.15801 0.2875 8.35488L3.12257 9.81094L2.12031 12.8994C1.98455 13.3178 2.37188 13.7115 2.77917 13.5762L5.14306 12.7682C5.13507 12.6697 5.1151 12.5754 5.1151 12.4729C5.1151 11.9602 5.20694 11.468 5.36267 11.0004C5.21892 10.8896 5.07917 10.7871 4.95538 10.66ZM7.74253 8.28105C7.91424 7.27617 8.37344 6.37793 9.01632 5.65605C8.625 5.40176 8.16181 5.25 7.66667 5.25C6.25712 5.25 5.11111 6.42715 5.11111 7.875C5.11111 8.64199 5.43854 9.32695 5.95365 9.80684C6.40486 9.15469 7.0158 8.62148 7.74253 8.28105ZM20.9436 17.1486C20.6401 16.9723 20.2488 17.0748 20.0731 17.3947L18.6116 20.0197C18.4359 20.3355 18.5438 20.7334 18.8512 20.9139C18.951 20.9713 19.0589 21 19.1667 21C19.3863 21 19.6019 20.8811 19.7217 20.6678L21.1832 18.0428C21.3549 17.727 21.251 17.3291 20.9436 17.1486ZM17.1102 17.1486C16.8068 16.9723 16.4155 17.0748 16.2398 17.3947L14.7783 20.0197C14.6026 20.3355 14.7104 20.7334 15.0179 20.9139C15.1177 20.9713 15.2255 21 15.3333 21C15.553 21 15.7686 20.8811 15.8884 20.6678L17.3498 18.0428C17.5215 17.727 17.4177 17.3291 17.1102 17.1486ZM13.2769 17.1486C12.9734 16.9723 12.5821 17.0748 12.4064 17.3947L10.945 20.0197C10.7693 20.3355 10.8771 20.7334 11.1845 20.9139C11.2844 20.9713 11.3922 21 11.5 21C11.7196 21 11.9352 20.8811 12.055 20.6678L13.5165 18.0428C13.6882 17.727 13.5844 17.3291 13.2769 17.1486ZM9.44358 17.1486C9.1401 16.9723 8.74879 17.0748 8.57309 17.3947L7.11163 20.0197C6.93594 20.3355 7.04375 20.7334 7.35122 20.9139C7.45104 20.9713 7.55885 21 7.66667 21C7.88629 21 8.10191 20.8811 8.2217 20.6678L9.68316 18.0428C9.85486 17.727 9.75104 17.3291 9.44358 17.1486Z" fill="#000"/>
</svg>
