<svg width="23" height="20" viewBox="0 0 23 20" fill="none" xmlns="http://www.w3.org/2000/svg">
<path d="M16.1 12.5H16.0425C15.7766 11.0742 14.6158 10 13.225 10C12.3409 10 11.5611 10.4414 11.0328 11.125C10.3644 9.72266 9.0275 8.75 7.475 8.75C5.37984 8.75 3.68 10.4961 3.48953 12.7188C2.13109 13.2227 1.15 14.6055 1.15 16.25C1.15 18.3203 2.69531 20 4.6 20H16.1C18.0047 20 19.55 18.3203 19.55 16.25C19.55 14.1797 18.0047 12.5 16.1 12.5ZM22.6766 9.71484C19.8662 10.293 17.2859 7.96875 17.2859 4.90625C17.2859 3.14453 18.1592 1.52344 19.5823 0.648438C19.8016 0.515625 19.7477 0.15625 19.4961 0.105469C19.1511 0.0351563 18.7953 0 18.4395 0C15.2447 0 12.65 2.79687 12.65 6.25C12.65 6.27734 12.6572 6.30078 12.6572 6.32812C13.243 6.98437 13.6275 7.84375 13.7461 8.79297C15.1297 8.99219 16.3228 9.96094 16.8942 11.3242C17.7244 11.4805 18.4755 11.8867 19.09 12.4609C20.6173 12.2773 21.9902 11.4453 22.9389 10.1875C23.097 9.97266 22.9245 9.66406 22.6766 9.71484V9.71484ZM2.45453 11.8438C2.99 9.32031 5.03844 7.5 7.475 7.5C8.93766 7.5 10.2997 8.17188 11.2628 9.31641C11.6761 9.0625 12.1289 8.89453 12.5961 8.8125C12.3517 7.35547 11.1837 6.25 9.775 6.25H9.1425C8.87656 4.82422 7.71578 3.75 6.325 3.75C4.93422 3.75 3.77344 4.82422 3.5075 6.25H2.875C1.28656 6.25 0 7.64844 0 9.375C0 10.6992 0.761875 11.8281 1.83281 12.2812C2.03047 12.1211 2.23531 11.9688 2.45453 11.8438Z" fill="#000"/>
</svg>
