<svg width="24" height="19" viewBox="0 0 24 19" fill="none" xmlns="http://www.w3.org/2000/svg">
<path d="M18.4036 11.875H18.3461C18.0802 10.5205 16.9194 9.5 15.5286 9.5C14.6445 9.5 13.8647 9.91934 13.3364 10.5687C12.668 9.23652 11.3311 8.3125 9.77859 8.3125C7.68344 8.3125 5.98359 9.97129 5.79313 12.0828C4.43469 12.5615 3.45359 13.8752 3.45359 15.4375C3.45359 17.4043 4.99891 19 6.90359 19H18.4036C20.3083 19 21.8536 17.4043 21.8536 15.4375C21.8536 13.4707 20.3083 11.875 18.4036 11.875ZM20.1286 5.9375H19.4961C19.2302 4.58301 18.0694 3.5625 16.6786 3.5625C15.2878 3.5625 14.127 4.58301 13.8611 5.9375H13.2286C12.2367 5.9375 11.367 6.45332 10.8495 7.24004C11.8953 7.47012 12.8441 8.03047 13.5664 8.84687C14.1594 8.49805 14.835 8.30879 15.5286 8.30879C17.1314 8.30879 18.5581 9.2959 19.1978 10.7543C19.9345 10.8879 20.603 11.2107 21.1744 11.6598C22.2453 11.2256 23.0036 10.1568 23.0036 8.90254C23.0036 7.26602 21.717 5.9375 20.1286 5.9375V5.9375ZM4.75813 11.2516C4.84438 10.8693 4.97734 10.5131 5.13547 10.1717C4.89828 10.0232 4.66828 9.85625 4.46344 9.64473C3.11937 8.25684 3.11937 5.99687 4.46344 4.60527C5.8075 3.21738 7.99609 3.21738 9.34375 4.60527C9.78219 5.05801 10.0589 5.60352 10.2098 6.17871C10.4291 5.91895 10.6734 5.68516 10.9502 5.48848L11.8953 2.5791C12.0175 2.20059 11.6689 1.84434 11.3023 1.97051L8.59625 2.90195L7.32047 0.267188C7.14797 -0.0890625 6.65563 -0.0890625 6.48313 0.267188L5.20734 2.90195L2.50125 1.97051C2.13469 1.84434 1.78969 2.2043 1.90828 2.58281L2.81031 5.37715L0.25875 6.69453C-0.08625 6.87266 -0.08625 7.38105 0.25875 7.55918L2.81031 8.87656L1.90828 11.6709C1.78609 12.0494 2.13469 12.4057 2.50125 12.2832L4.03578 11.7562C4.26219 11.567 4.49938 11.3926 4.75813 11.2516ZM4.60359 7.125C4.60359 7.99336 5.06359 8.75039 5.74281 9.1623C6.57297 8.06758 7.79844 7.33652 9.2 7.17695C9.2 7.1584 9.20359 7.14355 9.20359 7.125C9.20359 5.81504 8.17219 4.75 6.90359 4.75C5.635 4.75 4.60359 5.81504 4.60359 7.125V7.125Z" fill="#000"/>
</svg>
