<svg width="23" height="23" viewBox="0 0 23 23" fill="none" xmlns="http://www.w3.org/2000/svg">
<path d="M8.26169 16.6256C7.92028 16.4279 7.48004 16.5447 7.28239 16.8951L4.40739 21.9264C4.20973 22.2723 4.33102 22.7125 4.67692 22.9057C4.78922 22.9686 4.91051 23 5.0318 23C5.27887 23 5.52145 22.8697 5.65622 22.6361L8.53122 17.6049C8.72887 17.2635 8.60758 16.8232 8.26169 16.6256V16.6256ZM12.5742 16.6256C12.2328 16.4279 11.7925 16.5447 11.5949 16.8951L8.71989 21.9264C8.52223 22.2723 8.64352 22.7125 8.98942 22.9057C9.10172 22.9686 9.22301 23 9.3443 23C9.59137 23 9.83395 22.8697 9.96872 22.6361L12.8437 17.6049C13.0414 17.2635 12.9201 16.8232 12.5742 16.6256V16.6256ZM3.94918 16.6256C3.60778 16.4279 3.16754 16.5447 2.96989 16.8951L0.0948877 21.9264C-0.102769 22.2723 0.0185205 22.7125 0.364419 22.9057C0.476724 22.9686 0.598013 23 0.719302 23C0.966372 23 1.20895 22.8697 1.34372 22.6361L4.21872 17.6049C4.41637 17.2635 4.29508 16.8232 3.94918 16.6256V16.6256ZM21.1992 16.6256C20.8578 16.4279 20.4175 16.5447 20.2199 16.8951L17.3449 21.9264C17.1472 22.2723 17.2685 22.7125 17.6144 22.9057C17.7267 22.9686 17.848 23 17.9693 23C18.2164 23 18.459 22.8697 18.5937 22.6361L21.4687 17.6049C21.6664 17.2635 21.5451 16.8232 21.1992 16.6256V16.6256ZM16.8867 16.6256C16.5453 16.4279 16.105 16.5447 15.9074 16.8951L13.0324 21.9264C12.8347 22.2723 12.956 22.7125 13.3019 22.9057C13.4142 22.9686 13.5355 23 13.6568 23C13.9039 23 14.1465 22.8697 14.2812 22.6361L17.1562 17.6049C17.3539 17.2635 17.2326 16.8232 16.8867 16.6256V16.6256ZM18.6881 5.75C18.6611 5.75 18.6386 5.75898 18.6162 5.75898C18.6656 5.52539 18.6881 5.28281 18.6881 5.03125C18.6881 3.0457 17.0798 1.4375 15.0943 1.4375C13.9892 1.4375 13.0144 1.94512 12.3541 2.73125C11.5185 1.11406 9.85192 0 7.9068 0C5.13063 0 2.87555 2.25059 2.87555 5.03125C2.87555 5.35918 2.91149 5.67363 2.96989 5.98359C1.24938 6.54961 0.000551729 8.15332 0.000551729 10.0625C0.000551729 12.4434 1.93219 14.375 4.31305 14.375H18.6881C21.0689 14.375 23.0006 12.4434 23.0006 10.0625C23.0006 7.68164 21.0689 5.75 18.6881 5.75Z" fill="#000"/>
</svg>
