<svg width="18" height="19" viewBox="0 0 18 19" fill="none" xmlns="http://www.w3.org/2000/svg">
<path d="M16.7091 12.8102L15.4265 12.0865L16.4131 11.8268C16.7243 11.7451 16.9102 11.4297 16.8267 11.1254L16.675 10.5725C16.5915 10.2682 16.2689 10.0863 15.9578 10.168L13.2712 10.873L10.8464 9.5L13.2674 8.13066L15.954 8.83574C16.2651 8.91738 16.5877 8.73555 16.6712 8.43125L16.8229 7.87832C16.9064 7.57402 16.7205 7.25859 16.4093 7.17695L15.4227 6.91719L16.7053 6.19355C16.9861 6.03398 17.081 5.68516 16.9216 5.41055L16.3334 4.41602C16.1703 4.14141 15.8136 4.04863 15.5328 4.20449L14.2502 4.92813L14.5158 3.96328C14.5993 3.65898 14.4133 3.34355 14.1022 3.26191L13.5368 3.11348C13.2256 3.03184 12.9031 3.21367 12.8196 3.51797L12.0986 6.14531L9.71558 7.48867V4.6127L11.7533 2.61992C11.9886 2.38984 11.9886 2.01133 11.7533 1.78125L11.3245 1.36191C11.0892 1.13184 10.7022 1.13184 10.4669 1.36191L9.71558 2.09297V0.59375C9.71558 0.267187 9.44236 0 9.10843 0H7.89415C7.56022 0 7.287 0.267187 7.287 0.59375V2.09297L6.53946 1.36191C6.30419 1.13184 5.91714 1.13184 5.68187 1.36191L5.24928 1.78125C5.01022 2.01133 5.01022 2.38984 5.24928 2.61992L7.287 4.6127V7.48867L4.90397 6.14531L4.18298 3.51797C4.0995 3.21367 3.77696 3.03184 3.4658 3.11348L2.90039 3.26191C2.58923 3.34355 2.4033 3.65898 2.48678 3.96328L2.7524 4.92813L1.46981 4.20449C1.18901 4.04492 0.832313 4.14141 0.669143 4.41602L0.0809732 5.40684C-0.0821966 5.68145 0.0164642 6.03027 0.297268 6.18984L1.57986 6.91348L0.59325 7.17324C0.278295 7.25488 0.0923571 7.57031 0.175839 7.87832L0.327625 8.43125C0.411107 8.73555 0.733652 8.91738 1.04481 8.83574L3.73142 8.13066L6.15241 9.5L3.73142 10.8693L1.04481 10.1643C0.733652 10.0826 0.411107 10.2645 0.327625 10.5687L0.175839 11.1217C0.0923571 11.426 0.278295 11.7414 0.589456 11.823L1.57606 12.0828L0.293473 12.8102C0.0126695 12.9697 -0.0821966 13.3186 0.0771785 13.5932L0.665349 14.5877C0.828518 14.8623 1.18521 14.9551 1.46602 14.7992L2.74861 14.0756L2.48298 15.0404C2.3995 15.3447 2.58544 15.6602 2.8966 15.7418L3.462 15.8902C3.77316 15.9719 4.09571 15.79 4.17919 15.4857L4.90017 12.8584L7.28321 11.515V14.391L5.24548 16.3838C5.00642 16.6139 5.00642 16.9924 5.24548 17.2225L5.67428 17.6418C5.90955 17.8719 6.2966 17.8719 6.53187 17.6418L7.27941 16.9107V18.4062C7.27941 18.7328 7.55263 19 7.88656 19H9.10084C9.43477 19 9.70799 18.7328 9.70799 18.4062V16.907L10.4555 17.6381C10.6908 17.8682 11.0779 17.8682 11.3131 17.6381L11.7419 17.2188C11.9772 16.9887 11.9772 16.6102 11.7419 16.3801L9.71558 14.3873V11.5113L12.0986 12.8547L12.8196 15.482C12.9031 15.7863 13.2256 15.9682 13.5368 15.8865L14.1022 15.7381C14.4133 15.6564 14.5993 15.341 14.5158 15.0367L14.2502 14.0719L15.5328 14.7955C15.8136 14.9551 16.1703 14.8586 16.3334 14.584L16.9216 13.5895C17.0848 13.3186 16.9899 12.966 16.7091 12.8102V12.8102Z" fill="#000"/>
</svg>
