<svg width="23" height="20" viewBox="0 0 23 20" fill="none" xmlns="http://www.w3.org/2000/svg">
<path d="M4.95624 10.1523C3.46258 8.69141 3.46258 6.3125 4.95624 4.84766C6.33808 3.49609 8.51467 3.41016 10.0163 4.55859C10.8151 4.05469 11.7576 3.75 12.78 3.75C12.8079 3.75 12.8319 3.75781 12.8599 3.75781L13.2153 2.71484C13.3511 2.31641 12.9637 1.94141 12.5563 2.07422L9.54905 3.05469L8.13127 0.28125C7.93957 -0.09375 7.39243 -0.09375 7.20073 0.28125L5.78295 3.05469L2.77565 2.07422C2.36829 1.94141 1.98489 2.32031 2.12068 2.71875L3.12311 5.66016L0.28755 7.04687C-0.0958499 7.23437 -0.0958499 7.76953 0.28755 7.95703L3.12311 9.34375L2.12068 12.2852C1.98489 12.6836 2.37229 13.0586 2.77965 12.9297L5.14395 12.1602C5.13596 12.0664 5.11599 11.9766 5.11599 11.8789C5.11599 11.3906 5.20785 10.9219 5.3636 10.4766C5.21983 10.3711 5.08005 10.2734 4.95624 10.1523V10.1523ZM7.74388 7.88672C7.91561 6.92969 8.37489 6.07422 9.01788 5.38672C8.62649 5.14453 8.16322 5 7.66799 5C6.2582 5 5.112 6.12109 5.112 7.5C5.112 8.23047 5.43948 8.88281 5.95468 9.33984C6.40597 8.71875 7.01701 8.21094 7.74388 7.88672ZM17.4127 13.125H15.1083L15.7993 10.5898C15.8791 10.293 15.6515 10 15.336 10H12.6202C12.3806 10 12.1769 10.1758 12.145 10.4062L11.506 15.0937C11.466 15.375 11.6897 15.625 11.9812 15.625H14.3495L13.431 19.4219C13.3591 19.7188 13.5907 20 13.8982 20C14.066 20 14.2257 19.9141 14.3136 19.7656L17.8281 13.8281C18.0118 13.5156 17.7802 13.125 17.4127 13.125ZM20.3881 8.80859C20.1125 7.35547 18.8185 6.25 17.253 6.25C16.7618 6.25 16.2985 6.36719 15.8831 6.5625C15.1882 5.62109 14.062 5 12.78 5C10.6633 5 8.94599 6.67969 8.94599 8.75C8.94599 8.76953 8.95398 8.79297 8.95398 8.8125C7.49227 9.10156 6.39 10.3594 6.39 11.875C6.39 13.6016 7.81976 15 9.58499 15H10.236C10.24 14.9766 10.236 14.9531 10.236 14.9297L10.875 10.2422C10.9948 9.39063 11.7416 8.75 12.6202 8.75H15.336C15.8871 8.75 16.3943 8.99609 16.7298 9.42187C17.0653 9.84766 17.1771 10.3906 17.0333 10.9102L16.7697 11.875H17.4087C18.0358 11.875 18.6188 12.2031 18.9304 12.7344C19.2419 13.2656 19.2419 13.9258 18.9304 14.4531L18.6069 15H19.805C21.5702 15 23 13.6016 23 11.875C23.004 10.3437 21.8777 9.07422 20.3881 8.80859Z" fill="#000"/>
</svg>
