<svg width="23" height="20" viewBox="0 0 23 20" fill="none" xmlns="http://www.w3.org/2000/svg">
<path d="M22.6766 8.74219C19.8655 9.26172 17.2859 7.16797 17.2859 4.41406C17.2859 2.82813 18.1604 1.36719 19.5819 0.582031C19.8016 0.460937 19.7457 0.136719 19.4981 0.09375C19.1507 0.03125 18.7953 0 18.4399 0C15.3293 0 12.8057 2.39062 12.674 5.38672C13.7401 5.85156 14.5986 6.70703 15.0259 7.79688C16.5073 8.35547 17.5814 9.64844 17.829 11.1875C18.0326 11.207 18.2283 11.2461 18.4359 11.2461C20.2208 11.2461 21.854 10.457 22.9321 9.16406C23.0998 8.97656 22.9241 8.69531 22.6766 8.74219ZM11.0208 13.125H8.71684L9.40764 10.5898C9.4875 10.293 9.2599 10 8.94444 10H6.22917C5.98958 10 5.78594 10.1758 5.75399 10.4062L5.1151 15.0937C5.07517 15.375 5.29878 15.625 5.59028 15.625H7.95816L7.03976 19.4219C6.96788 19.7188 7.19948 20 7.50694 20C7.67465 20 7.83437 19.9141 7.92222 19.7656L11.4361 13.8281C11.6198 13.5156 11.3882 13.125 11.0208 13.125ZM13.9957 8.80859C13.7201 7.35547 12.4264 6.25 10.8611 6.25C10.37 6.25 9.90677 6.36719 9.49149 6.5625C8.7967 5.62109 7.67066 5 6.38889 5C4.27257 5 2.55556 6.67969 2.55556 8.75C2.55556 8.76953 2.56354 8.79297 2.56354 8.8125C1.10208 9.09766 0 10.3594 0 11.875C0 13.6016 1.42951 15 3.19444 15H3.84531C3.84931 14.9766 3.84531 14.9531 3.84531 14.9297L4.4842 10.2422C4.60399 9.39063 5.35069 8.75 6.22917 8.75H8.94444C9.49549 8.75 10.0026 8.99609 10.338 9.42187C10.6734 9.84766 10.7852 10.3906 10.6415 10.9102L10.378 11.875H11.0168C11.6437 11.875 12.2267 12.2031 12.5382 12.7344C12.8497 13.2656 12.8497 13.9258 12.5382 14.4531L12.2148 15H13.4127C15.1776 15 16.6071 13.6016 16.6071 11.875C16.6111 10.3437 15.4851 9.07422 13.9957 8.80859Z" fill="#000"/>
</svg>
